<?xml version="1.0" encoding="UTF-8" standalone="no"?>
<!-- Generator: Adobe Illustrator 15.0.0, SVG Export Plug-In . SVG Version: 6.00 Build 0)  -->

<svg
   xmlns:dc="http://purl.org/dc/elements/1.1/"
   xmlns:cc="http://creativecommons.org/ns#"
   xmlns:rdf="http://www.w3.org/1999/02/22-rdf-syntax-ns#"
   xmlns:svg="http://www.w3.org/2000/svg"
   xmlns="http://www.w3.org/2000/svg"
   xmlns:sodipodi="http://sodipodi.sourceforge.net/DTD/sodipodi-0.dtd"
   xmlns:inkscape="http://www.inkscape.org/namespaces/inkscape"
   version="1.1"
   id="Logo"
   x="0px"
   y="0px"
   width="290.75px"
   height="75px"
   viewBox="0 0 290.75 75"
   enable-background="new 0 0 290.75 75"
   xml:space="preserve"
   inkscape:version="0.48.3.1 r9886"
   sodipodi:docname="ap_logo_bigstory.svg"><metadata
   id="metadata47"><rdf:RDF><cc:Work
       rdf:about=""><dc:format>image/svg+xml</dc:format><dc:type
         rdf:resource="http://purl.org/dc/dcmitype/StillImage" /></cc:Work></rdf:RDF></metadata><defs
   id="defs45" /><sodipodi:namedview
   pagecolor="#ffffff"
   bordercolor="#666666"
   borderopacity="1"
   objecttolerance="10"
   gridtolerance="10"
   guidetolerance="10"
   inkscape:pageopacity="0"
   inkscape:pageshadow="2"
   inkscape:window-width="1317"
   inkscape:window-height="744"
   id="namedview43"
   showgrid="false"
   showguides="true"
   inkscape:guide-bbox="true"
   inkscape:zoom="2"
   inkscape:cx="135.62077"
   inkscape:cy="62.750621"
   inkscape:window-x="49"
   inkscape:window-y="24"
   inkscape:window-maximized="1"
   inkscape:current-layer="Logo" />
<g
   id="g3">
	<g
   id="g5">
		<rect
   x="0.066"
   y="0.181"
   fill="#FFFFFF"
   width="64.631"
   height="67.006"
   id="rect7" />
		<rect
   x="0.065"
   y="67.188"
   fill="#FF322E"
   width="64.632"
   height="7.812"
   id="rect9" />
	</g>
	<g
   id="g11">
		<polygon
   points="14.942,17.814 4.078,50.402 11.943,50.402 19.323,27.368 23.021,38.884 18.237,38.884 16.326,45.457     25.133,45.457 26.721,50.402 34.812,50.402 23.948,17.814   "
   id="polygon13" />
		<path
   d="M47.173,17.814H35.879v32.588h7.81V24.388h3.147c3.651,0,5.73,1.741,5.73,4.888c0,3.09-2.08,4.888-5.73,4.888H46.33v6.574    h0.843c8.427,0,13.372-4.243,13.372-11.462C60.545,21.916,55.6,17.814,47.173,17.814z"
   id="path15" />
	</g>
</g>
<g
   id="g17"
   transform="translate(0,3.5039063)">
	<path
   d="m 136.208,23.092 v 3.776 h -4.072 v 20.03 h -4.072 v -20.03 h -4.072 v -3.776 h 12.216 z"
   id="path19"
   inkscape:connector-curvature="0"
   style="fill:#ffffff" />
	<path
   d="m 142.25,23.092 v 9.654 h 4.696 v -9.654 h 4.071 v 23.807 h -4.071 V 36.522 h -4.696 v 10.376 h -4.072 V 23.092 h 4.072 z"
   id="path21"
   inkscape:connector-curvature="0"
   style="fill:#ffffff" />
	<path
   d="m 165.037,23.092 v 3.776 h -6.6 v 6.042 h 5.09 v 3.35 h -5.09 v 6.928 h 6.896 v 3.711 H 154.365 V 23.092 h 10.672 z"
   id="path23"
   inkscape:connector-curvature="0"
   style="fill:#ffffff" />
	<path
   d="m 184.607,29.364 c 0,1.379 -0.197,2.474 -0.592,3.283 -0.394,0.811 -1.039,1.401 -1.937,1.773 v 0.065 c 1.116,0.328 1.942,0.969 2.479,1.921 0.535,0.952 0.804,2.15 0.804,3.596 0,1.095 -0.099,2.068 -0.296,2.922 -0.196,0.854 -0.525,1.576 -0.984,2.168 -0.46,0.591 -1.084,1.04 -1.871,1.346 -0.789,0.307 -1.773,0.46 -2.956,0.46 H 172.72 V 23.092 h 5.812 c 1.072,0 1.991,0.153 2.758,0.46 0.766,0.307 1.396,0.733 1.888,1.28 0.493,0.548 0.854,1.204 1.084,1.971 0.23,0.767 0.345,1.62 0.345,2.561 z m -7.914,3.743 h 2.004 c 0.831,0 1.395,-0.257 1.69,-0.771 0.295,-0.514 0.443,-1.352 0.443,-2.513 0,-1.16 -0.159,-1.953 -0.476,-2.38 -0.318,-0.428 -0.871,-0.641 -1.658,-0.641 h -2.004 v 6.305 z m 0,10.179 h 2.397 c 0.81,0 1.384,-0.24 1.724,-0.722 0.34,-0.482 0.51,-1.412 0.51,-2.791 0,-0.701 -0.039,-1.275 -0.115,-1.725 -0.077,-0.448 -0.209,-0.799 -0.395,-1.051 -0.186,-0.251 -0.416,-0.421 -0.689,-0.509 -0.273,-0.087 -0.607,-0.131 -1.002,-0.131 h -2.43 v 6.929 z"
   id="path25"
   inkscape:connector-curvature="0"
   style="fill:#ffffff" />
	<path
   d="m 192.258,23.092 v 23.807 h -4.071 V 23.092 h 4.071 z"
   id="path27"
   inkscape:connector-curvature="0"
   style="fill:#ffffff" />
	<path
   d="m 202.076,22.764 c 1.642,0 3.016,0.477 4.121,1.429 1.105,0.952 1.811,2.326 2.117,4.121 l -3.119,0.952 c -0.285,-1.051 -0.662,-1.79 -1.133,-2.217 -0.471,-0.427 -1.034,-0.641 -1.691,-0.641 -1.029,0 -1.778,0.334 -2.249,1.002 -0.471,0.668 -0.706,1.746 -0.706,3.234 v 9.03 c 0,1.335 0.252,2.31 0.756,2.922 0.503,0.613 1.215,0.92 2.134,0.92 0.525,0 0.979,-0.104 1.362,-0.312 0.383,-0.208 0.739,-0.574 1.068,-1.1 v -4.269 h -2.004 V 34.88 h 5.582 v 12.019 h -3.316 v -1.28 h -0.065 c -0.964,1.072 -2.222,1.608 -3.776,1.608 -1.752,0 -3.158,-0.612 -4.219,-1.839 -1.062,-1.226 -1.593,-3.119 -1.593,-5.681 v -9.096 c 0,-1.182 0.136,-2.254 0.41,-3.218 0.273,-0.963 0.69,-1.789 1.248,-2.479 0.558,-0.689 1.259,-1.22 2.102,-1.592 0.843,-0.372 1.833,-0.558 2.971,-0.558 z"
   id="path29"
   inkscape:connector-curvature="0"
   style="fill:#ffffff" />
	<path
   d="m 220.989,22.764 c 1.685,0 3.009,0.477 3.974,1.429 0.963,0.952 1.652,2.238 2.068,3.858 l -2.955,1.116 c -0.242,-1.051 -0.581,-1.795 -1.019,-2.233 -0.438,-0.438 -0.985,-0.656 -1.642,-0.656 -1.424,0 -2.135,0.81 -2.135,2.43 0,0.723 0.197,1.352 0.592,1.889 0.394,0.536 0.881,1.045 1.461,1.526 0.58,0.481 1.215,0.969 1.904,1.461 0.689,0.493 1.324,1.062 1.904,1.708 0.58,0.646 1.067,1.391 1.461,2.232 0.395,0.843 0.592,1.855 0.592,3.037 0,2.146 -0.531,3.793 -1.593,4.942 -1.062,1.149 -2.523,1.724 -4.384,1.724 -0.767,0 -1.488,-0.126 -2.167,-0.377 -0.679,-0.252 -1.292,-0.619 -1.839,-1.101 -0.547,-0.482 -1.008,-1.078 -1.379,-1.789 -0.373,-0.712 -0.635,-1.527 -0.789,-2.446 l 3.219,-0.985 c 0.24,1.182 0.618,2.015 1.133,2.495 0.514,0.482 1.089,0.723 1.724,0.723 1.467,0 2.2,-0.854 2.2,-2.562 0,-0.831 -0.197,-1.548 -0.591,-2.15 -0.394,-0.602 -0.893,-1.16 -1.494,-1.675 -0.603,-0.514 -1.253,-1.022 -1.954,-1.526 -0.701,-0.504 -1.352,-1.067 -1.953,-1.691 -0.603,-0.624 -1.101,-1.347 -1.494,-2.167 -0.395,-0.821 -0.592,-1.812 -0.592,-2.972 0,-0.876 0.132,-1.696 0.395,-2.463 0.263,-0.767 0.641,-1.429 1.133,-1.986 0.492,-0.559 1.094,-0.996 1.807,-1.313 0.711,-0.319 1.516,-0.478 2.413,-0.478 z"
   id="path31"
   inkscape:connector-curvature="0"
   style="fill:#ffffff" />
	<path
   d="m 240.33,23.092 v 3.776 h -4.072 v 20.03 h -4.072 v -20.03 h -4.071 v -3.776 h 12.215 z"
   id="path33"
   inkscape:connector-curvature="0"
   style="fill:#ffffff" />
	<path
   d="m 248.375,22.764 c 2.188,0 3.842,0.646 4.957,1.938 1.117,1.292 1.676,3.119 1.676,5.483 v 9.589 c 0,2.386 -0.559,4.225 -1.676,5.516 -1.115,1.292 -2.77,1.938 -4.957,1.938 -2.189,0 -3.838,-0.646 -4.942,-1.938 -1.106,-1.291 -1.658,-3.13 -1.658,-5.516 v -9.556 c 0,-2.386 0.552,-4.225 1.658,-5.517 1.104,-1.291 2.753,-1.937 4.942,-1.937 z m 2.561,7.454 c 0,-1.423 -0.203,-2.414 -0.607,-2.972 -0.405,-0.559 -1.045,-0.838 -1.921,-0.838 -0.876,0 -1.522,0.279 -1.938,0.838 -0.416,0.558 -0.624,1.538 -0.624,2.938 v 9.589 c 0,1.444 0.203,2.457 0.607,3.037 0.405,0.58 1.045,0.87 1.922,0.87 0.896,0 1.548,-0.29 1.953,-0.87 0.404,-0.58 0.607,-1.593 0.607,-3.037 v -9.555 z"
   id="path35"
   inkscape:connector-curvature="0"
   style="fill:#ffffff" />
	<path
   d="m 263.545,37.146 h -1.643 v 9.752 h -4.071 V 23.092 h 6.239 c 2.079,0 3.59,0.586 4.531,1.757 0.94,1.172 1.412,2.852 1.412,5.041 0,1.707 -0.242,3.069 -0.723,4.088 -0.482,1.018 -1.205,1.735 -2.168,2.15 l 3.875,10.771 h -4.301 l -3.151,-9.753 z m -1.643,-3.316 h 1.938 c 0.832,0 1.396,-0.274 1.691,-0.821 0.295,-0.547 0.443,-1.478 0.443,-2.791 0,-0.7 -0.039,-1.275 -0.115,-1.724 -0.077,-0.449 -0.203,-0.805 -0.377,-1.067 -0.176,-0.263 -0.395,-0.443 -0.657,-0.542 -0.262,-0.099 -0.591,-0.147 -0.985,-0.147 h -1.938 v 7.092 z"
   id="path37"
   inkscape:connector-curvature="0"
   style="fill:#ffffff" />
	<path
   d="m 280.783,39.74 v 7.158 h -4.071 v -7.257 l -5.451,-16.55 h 4.433 l 3.055,11.92 h 0.064 l 3.021,-11.92 h 4.434 l -5.485,16.649 z"
   id="path39"
   inkscape:connector-curvature="0"
   style="fill:#ffffff" />
</g>
<text
   transform="matrix(1 0 0 1 123.6641 46.8984)"
   display="none"
   font-family="'GoodComp-CondBold'"
   font-size="32.8363"
   id="text41">THE BIG STORY</text>

</svg>